# xmcd CD database file
#
# Track frame offsets:
#	182
#	20370
#	39885
#	62850
#	84922
#	104717
#	123682
#	144622
#	167090
#	188785
#
# Disc length: 2797 seconds
#
# Revision: 1
# Processed by: cddbd v1.5.2PL0 Copyright (c) Steve Scherf et al.
# Submitted via: CDex 1.51
#
DISCID=860aeb0a
DTITLE=Luis Morais - Novidade de Mindelo
DYEAR=2002
DGENRE=Jazz
TTITLE0=Mindelo
TTITLE1=Stoóra mais stóra
TTITLE2=Delicadeza
TTITLE3=Nôs realidade
TTITLE4=Cabo Verde de nôs
TTITLE5=Novidade
TTITLE6=Futuro de nôs terra
TTITLE7=Ano feliz
TTITLE8=Inteligência universal
TTITLE9=Explusão 2002
EXTD=YEAR: 2002
EXTT0=
EXTT1=
EXTT2=
EXTT3=
EXTT4=
EXTT5=
EXTT6=
EXTT7=
EXTT8=
EXTT9=
PLAYORDER=
